<?xml version="1.0" encoding="utf-8"?>
<!-- Generator: Adobe Illustrator 16.0.0, SVG Export Plug-In . SVG Version: 6.00 Build 0)  -->
<!DOCTYPE svg PUBLIC "-//W3C//DTD SVG 1.1//EN" "http://www.w3.org/Graphics/SVG/1.1/DTD/svg11.dtd">
<svg version="1.1" id="Layer_1" xmlns="http://www.w3.org/2000/svg" xmlns:xlink="http://www.w3.org/1999/xlink" x="0px" y="0px"
	 width="286px" height="35px" viewBox="0 0 286 35" enable-background="new 0 0 286 35" xml:space="preserve">
<g>
	<rect x="242.227" y="0.754" fill="#FFFFFF" width="43.648" height="33.492"/>
	<rect x="0.125" y="0.754" fill="#FFFFFF" width="97.385" height="33.492"/>
	<rect x="134.385" y="0.754" fill="#FFFFFF" width="104.406" height="33.492"/>
	<rect x="101.092" y="0.754" fill="#FFFFFF" width="29.713" height="33.492"/>
	<g>
		<path fill="#1268B3" d="M277.568,22.454l-0.344-0.548c-0.691,0.406-0.955,0.488-1.381,0.488c-0.67,0-0.934-0.285-0.934-1.057
			v-6.09h2.516v-0.934h-2.516v-2.862h-1.463v2.802l-1.766,0.446v0.548h1.766v6.273c0,1.238,0.711,1.969,1.889,1.969
			C276.086,23.49,276.494,23.307,277.568,22.454 M271.297,14.598l-0.631-0.547c-0.121-0.123-0.324-0.183-0.566-0.183
			c-0.732,0-1.26,0.446-2.721,2.313v-2.273h-0.367L264.09,14.7v0.548h1.766v7.309h-1.541v0.75h5.014v-0.75h-1.949v-5.4
			c1.115-1.359,1.482-1.705,1.848-1.705c0.201,0,0.486,0.184,0.893,0.568L271.297,14.598z M258.486,17.928h-4.465l2.293-5.705
			L258.486,17.928z M263.258,23.307v-0.771h-1.156l-5.076-13.053h-0.73l-5.277,13.053h-1.057v0.771h3.877v-0.771h-1.684l1.48-3.653
			l5.197,0.02l1.422,3.654h-1.625v0.75H263.258z"/>
		<path fill="#1268B3" d="M229.102,23.227v-0.752h-1.523v-6.15c0-1.562-0.934-2.537-2.436-2.537c-1.299,0-2.172,0.548-3.695,2.314
			v-2.274h-0.365l-2.922,0.792v0.548h1.766v7.308h-1.543v0.752h4.607v-0.752h-1.543v-5.277c1.766-2.03,2.275-2.416,3.148-2.416
			c0.893,0,1.439,0.67,1.439,1.746v5.947h-1.521v0.752H229.102z M214.02,21.216c-0.895,0.792-1.422,1.076-2.072,1.076
			c-0.852,0-1.4-0.548-1.4-1.399v-1.016l3.473-0.812V21.216z M217.104,22.84v-0.568h-1.562V16.02c0-1.34-1.178-2.232-2.965-2.232
			c-1.846,0-3.207,0.872-3.207,2.05c0,0.224,0.021,0.325,0.162,0.568l1.807-0.528v-0.975c0.59-0.283,0.854-0.344,1.26-0.344
			c0.812,0,1.422,0.588,1.422,1.4v2.294l-3.473,0.791c-0.975,0.224-1.645,1.076-1.645,2.111c0,1.36,1.035,2.335,2.436,2.335
			c1.076,0,1.848-0.426,2.701-1.482v0.203c0,0.751,0.365,1.198,0.994,1.198c0.162,0,0.447-0.062,0.711-0.142L217.104,22.84z
			 M207.766,22.516l-0.406-0.771c-1.115,0.568-1.623,0.73-2.273,0.73c-1.887,0-3.449-1.867-3.449-4.141
			c0-1.036,0.324-1.929,0.934-2.68c0.67-0.812,1.096-1.016,2.211-1.096c0.812,0.506,1.016,0.649,1.727,1.379l1.096-1.217
			c-1.057-0.73-1.645-0.934-2.699-0.934c-2.904,0-4.953,2.07-4.953,5.014c0,2.862,1.807,4.689,4.648,4.689
			C205.879,23.49,206.428,23.307,207.766,22.516 M197.332,10.335c0-0.588-0.467-1.055-1.076-1.055c-0.588,0-1.055,0.467-1.055,1.055
			c0,0.61,0.467,1.076,1.055,1.076C196.865,11.411,197.332,10.945,197.332,10.335 M198.652,23.227v-0.752h-1.543v-8.647h-0.365
			l-2.924,0.792v0.548h1.766v7.308h-1.543v0.752H198.652z M193.17,14.518l-0.629-0.549c-0.121-0.121-0.324-0.182-0.568-0.182
			c-0.73,0-1.258,0.445-2.721,2.314v-2.274h-0.363l-2.926,0.792v0.548h1.768v7.308h-1.543v0.752h5.014v-0.752h-1.949v-5.399
			c1.117-1.36,1.482-1.705,1.848-1.705c0.203,0,0.486,0.183,0.893,0.567L193.17,14.518z M183.021,17.217h-4.711
			c0.184-1.582,1.219-2.578,2.701-2.578c1.178,0,2.01,0.873,2.01,2.092V17.217z M184.686,18.029V17.48
			c0-2.191-1.502-3.693-3.695-3.693c-2.516,0-4.365,2.07-4.365,4.912c0,2.802,1.828,4.791,4.406,4.791
			c1.178,0,1.887-0.244,3.41-1.117l-0.385-0.751c-1.139,0.731-1.686,0.935-2.498,0.935c-1.928,0-3.268-1.767-3.268-4.304v-0.224
			H184.686z M175.326,23.227v-0.752h-1.521v-6.17c0-1.543-0.934-2.518-2.436-2.518c-1.279,0-2.152,0.548-3.676,2.314
			c-0.203-1.563-0.994-2.314-2.436-2.314c-1.299,0-2.172,0.548-3.693,2.314v-2.274h-0.367l-2.922,0.792v0.548h1.766v7.308h-1.543
			v0.752h4.609v-0.752h-1.543v-5.277c1.766-2.03,2.271-2.416,3.145-2.416c0.895,0,1.443,0.67,1.443,1.746v5.947h-1.523v0.752h4.588
			v-0.752h-1.523v-5.277l1.076-1.157c0.873-0.935,1.4-1.237,2.072-1.237c0.893,0,1.439,0.629,1.439,1.725v5.947h-1.543v0.752
			H175.326z M152.672,17.848h-4.465l2.293-5.705L152.672,17.848z M157.443,23.227v-0.771h-1.158l-5.074-13.053h-0.73l-5.279,13.053
			h-1.055v0.771h3.877v-0.771h-1.686l1.482-3.654l5.197,0.021l1.422,3.653h-1.625v0.752H157.443z"/>
		<path fill="#1268B3" d="M120.912,15.454v-1.337h-0.387v0.236h-3.354v0.311h0.629v4.926h-0.629V19.9h2V19.59h-0.631v-2.32h1.59
			v0.647l0.387-0.009v-1.655l-0.387,0.008v0.631h-1.59v-2.153h1.993v0.716H120.912z M115.235,17.127
			c0,1.412-0.782,2.447-1.858,2.447c-1.093,0-1.884-1.026-1.884-2.447c0-1.43,0.791-2.438,1.892-2.438
			C114.453,14.689,115.235,15.715,115.235,17.127 M116.067,17.127c0-1.564-1.228-2.875-2.69-2.875c-1.488,0-2.715,1.303-2.715,2.883
			c0,1.564,1.235,2.876,2.715,2.876C114.84,20.011,116.067,18.691,116.067,17.127"/>
		<path fill="#1268B3" d="M85.365,20.729c0-1.299-0.629-1.969-2.617-2.762c-2.457-0.994-2.6-1.096-2.6-1.969
			s0.689-1.441,1.746-1.441c1.096,0,2.01,0.65,2.01,1.441c0,0.184-0.041,0.447-0.121,0.67h0.873l0.486-2.923H84.27l-0.121,0.731
			c-0.568-0.467-1.258-0.69-2.152-0.69c-1.867,0-3.146,1.075-3.146,2.659c0,1.279,0.689,2.029,2.639,2.781
			c2.131,0.832,2.701,1.279,2.701,2.091s-0.832,1.401-1.949,1.401c-1.26,0-2.396-0.772-2.396-1.646v-0.548H78.91v2.883h0.812v-0.73
			c0.59,0.547,1.441,0.812,2.578,0.812C84.107,23.49,85.365,22.353,85.365,20.729 M75.338,17.218h-4.709
			c0.182-1.584,1.217-2.578,2.699-2.578c1.178,0,2.01,0.873,2.01,2.09V17.218z M77.002,18.029v-0.548
			c0-2.192-1.502-3.694-3.693-3.694c-2.518,0-4.365,2.069-4.365,4.912c0,2.802,1.828,4.791,4.406,4.791
			c1.176,0,1.887-0.244,3.408-1.117l-0.385-0.751c-1.137,0.73-1.686,0.934-2.496,0.934c-1.93,0-3.27-1.766-3.27-4.303v-0.224H77.002
			z M68.07,14.781V14.03h-3.125v0.751h1.359l-2.273,5.989l-2.416-5.989h1.422V14.03h-3.939v0.751l0.854,0.021l3.551,8.688h0.406
			l3.309-8.709H68.07z M57.129,10.335c0-0.588-0.467-1.055-1.076-1.055c-0.588,0-1.055,0.467-1.055,1.055
			c0,0.61,0.467,1.076,1.055,1.076C56.662,11.411,57.129,10.945,57.129,10.335 M58.449,23.226v-0.75h-1.543v-8.648h-0.365
			l-2.924,0.792v0.548h1.766v7.309H53.84v0.75H58.449z M52.562,23.226v-0.75H51.02v-6.151c0-1.563-0.936-2.537-2.438-2.537
			c-1.279,0-2.152,0.548-3.674,2.313V8.265h-0.385L41.6,9.058v0.547h1.785v12.871h-1.541v0.75h4.586v-0.75h-1.521v-5.278
			c1.766-2.03,2.254-2.416,3.146-2.416c0.895,0,1.441,0.67,1.441,1.746v5.948h-1.543v0.75H52.562z M40.971,22.517l-0.406-0.772
			c-1.117,0.569-1.623,0.731-2.273,0.731c-1.889,0-3.451-1.869-3.451-4.142c0-1.036,0.325-1.929,0.934-2.68
			c0.67-0.812,1.097-1.015,2.213-1.097c0.812,0.508,1.016,0.65,1.726,1.381l1.097-1.219c-1.056-0.729-1.645-0.933-2.699-0.933
			c-2.903,0-4.955,2.069-4.955,5.015c0,2.861,1.808,4.688,4.649,4.688C39.083,23.49,39.631,23.308,40.971,22.517 M32.303,14.517
			l-0.63-0.547c-0.121-0.123-0.323-0.183-0.567-0.183c-0.731,0-1.26,0.446-2.721,2.313v-2.273H28.02l-2.924,0.792v0.548h1.766v7.309
			H25.32v0.75h5.014v-0.75h-1.949v-5.4c1.116-1.359,1.482-1.705,1.848-1.705c0.203,0,0.486,0.184,0.893,0.568L32.303,14.517z
			 M19.494,17.847h-4.467l2.293-5.705L19.494,17.847z M24.264,23.226v-0.771h-1.156L18.031,9.402h-0.73l-5.277,13.053h-1.056v0.771
			h3.877v-0.771H13.16l1.482-3.653l5.196,0.02l1.421,3.654h-1.624v0.75H24.264z"/>
	</g>
	
		<line fill="none" stroke="#1268B3" stroke-width="0.35" stroke-miterlimit="10" x1="109.401" y1="10.764" x2="122.506" y2="10.764"/>
	
		<line fill="none" stroke="#1268B3" stroke-width="0.35" stroke-miterlimit="10" x1="109.401" y1="23.168" x2="122.506" y2="23.168"/>
</g>
</svg>
